<svg xmlns="http://www.w3.org/2000/svg" viewBox="0 0 36 36"><g stroke="#34312d" stroke-linejoin="round"><path fill="#34312d" stroke-width="2" d="M9 8C4 5 2 9 4 16c1 4 4 6 7 4ZM27 8c5-3 7 1 5 8-1 4-4 6-7 4Z"/><path fill="#e9b750" stroke-width="2.4" d="M8 13c1-6 6-9 10-9s9 3 10 9v8c0 7-4 11-10 11S8 28 8 21Z"/><g fill="#34312d" stroke="none"><circle cx="14" cy="17" r="1.8"/><circle cx="22" cy="17" r="1.8"/></g><path fill="#fffaf0" stroke-width="1.7" d="M12 21c0-3 3-4 6-4s6 1 6 4-2 7-6 7-6-4-6-7Z"/><ellipse fill="#34312d" stroke="none" cx="18" cy="20" rx="3.1" ry="2.2"/></g></svg>
